<?xml version="1.0" encoding="utf-8"?>
<!-- Generator: Adobe Illustrator 26.1.0, SVG Export Plug-In . SVG Version: 6.00 Build 0)  -->
<svg version="1.1" id="Layer_1" xmlns="http://www.w3.org/2000/svg" xmlns:xlink="http://www.w3.org/1999/xlink" x="0px" y="0px"
	 viewBox="0 0 634.23 203.43" style="enable-background:new 0 0 634.23 203.43;" xml:space="preserve">
<style type="text/css">
	.st0{fill-rule:evenodd;clip-rule:evenodd;fill:#231F20;}
	.st1{fill-rule:evenodd;clip-rule:evenodd;fill:#DA4732;}
	.st2{fill-rule:evenodd;clip-rule:evenodd;fill:#FFDD00;}
	.st3{fill-rule:evenodd;clip-rule:evenodd;fill:#008FD5;}
	.st4{fill-rule:evenodd;clip-rule:evenodd;fill:#58595B;}
</style>
<g>
	<g id="XMLID_00000044871386301010403960000017056645601424709804_">
		
			<rect id="XMLID_00000069379804962363226420000013252111566173389990_" x="28.74" y="44.29" class="st0" width="24.31" height="91.01"/>
		
			<rect id="XMLID_00000116231725725115701830000012701677527508028332_" x="28.74" y="8.7" class="st0" width="23.97" height="23.14"/>
		<path id="XMLID_00000160150942301722187500000004151867917687615640_" class="st0" d="M141.1,51.67c-2.16-2.77-4.9-5.06-8.33-6.61
			c-3.4-1.66-7.47-2.46-12.18-2.46c-4.67,0-9.1,0.81-13.31,2.61c-4.29,1.77-8.17,3.92-11.81,6.59v-7.51H72.81v91.01h24.33V71.16
			c2.32-2.43,4.96-4.44,7.87-5.9c2.91-1.4,6.19-2.18,9.56-2.18c3.23,0,5.42,1,6.69,3.03c0.55,1.26,0.99,2.78,1.37,4.7
			c0.44,1.93,0.62,4.31,0.62,7.07v57.42h24.28V73.99c0-4.34-0.52-8.45-1.62-12.34C144.83,57.81,143.27,54.43,141.1,51.67"/>
		<path id="XMLID_00000012433994551885195880000002211508822389575595_" class="st0" d="M192.92,15.38h-24.3v28.9h-11.96v20.5h11.96
			v50.53c0,7.39,2.1,12.86,6.17,16.39c4.1,3.54,9.66,5.28,16.62,5.28c2,0,3.81,0,5.48-0.07c1.68-0.08,3.11-0.19,4.35-0.25
			c1.19-0.09,2.48-0.27,3.81-0.46c1.32-0.14,2.9-0.49,4.81-0.89v-20.96l-5.96,1.46c-1.75,0.43-3.58,0.71-5.51,0.71
			c-1.67,0-2.99-0.28-3.99-0.71c-1-0.36-1.48-1.55-1.48-3.51v-47.5h16.94v-20.5h-16.94V15.38z"/>
		<path id="XMLID_00000171697268544494580720000005652273401311903891_" class="st0" d="M265.34,113.39
			c-2.82,2.11-6.35,3.12-10.57,3.12c-0.59,0-1.13-0.02-1.66-0.02c-2.57-0.2-4.67-0.8-6.32-1.86c-1.99-1.24-3.58-2.81-4.74-4.83
			c-1.16-2.01-2-4.32-2.5-6.88c-0.5-2.6-0.92-5.22-1.23-7.92h14.79h37.39V83.24c0-5.99-0.96-11.32-3.06-16.13
			c-2.09-4.76-4.71-9.14-8.08-12.92c-6.9-7.74-15.55-11.6-26.08-11.6h-0.18c-6.84,0.03-12.69,1.29-17.52,3.86
			c-4.91,2.58-9.04,6.06-12.25,10.35c-3.25,4.27-5.57,9.3-7.07,15.01c-1.51,5.71-2.24,11.68-2.24,17.99
			c0,6.11,0.73,12.11,2.24,17.74c1.51,5.6,3.83,10.62,6.91,15.02c3.08,4.34,7.07,7.88,11.95,10.46c4.93,2.63,10.76,3.96,17.46,3.96
			h0.53c8.43-0.04,15.47-1.52,21.29-4.39c3.07-1.41,5.97-3.39,8.71-5.92c2.76-2.56,5.43-5.81,8.09-9.83l-17.97-11.44
			C270.84,108.68,268.18,111.3,265.34,113.39 M239.88,71.16c0.6-1.93,1.5-3.53,2.56-4.96c1.1-1.41,2.51-2.52,4.27-3.25
			c1.74-0.81,3.83-1.19,6.4-1.19c4.39,0,7.87,1.39,10.46,4.35c2.44,2.78,3.84,6.46,4.19,11.1h-14.65h-14.64
			C238.79,75.11,239.32,73.07,239.88,71.16"/>
		
			<rect id="XMLID_00000161599667837483658730000008048439164205073597_" x="306" y="10.38" class="st0" width="24.29" height="124.92"/>
		
			<rect id="XMLID_00000093862040453179026650000009397105250119999934_" x="352.21" y="10.38" class="st0" width="24.29" height="124.92"/>
		<path id="XMLID_00000110458590934932269790000002336188489953946022_" class="st0" d="M440.94,113.39
			c-2.86,2.11-6.34,3.12-10.53,3.12c-0.61,0-1.14-0.02-1.69-0.02c-2.58-0.2-4.66-0.8-6.32-1.86c-1.96-1.24-3.58-2.81-4.71-4.83
			c-1.19-2.01-2.02-4.29-2.51-6.88c-0.5-2.6-0.93-5.22-1.24-7.92h14.79h37.39V83.24c0-5.99-0.99-11.32-3.04-16.13
			c-2.1-4.76-4.75-9.14-8.11-12.92c-6.88-7.74-15.52-11.6-26.08-11.6h-0.16c-6.8,0.03-12.69,1.29-17.52,3.86
			c-4.95,2.58-9.01,6.06-12.23,10.35c-3.28,4.27-5.56,9.3-7.1,15.01c-1.45,5.71-2.22,11.68-2.22,17.99c0,6.11,0.76,12.11,2.22,17.74
			c1.54,5.6,3.83,10.62,6.94,15.02c3.08,4.34,7.06,7.88,11.98,10.46c4.89,2.63,10.71,3.96,17.43,3.96h0.52
			c8.42-0.04,15.48-1.52,21.3-4.39c3.05-1.41,5.95-3.39,8.7-5.92c2.73-2.56,5.4-5.81,8.08-9.83l-17.97-11.44
			C446.42,108.68,443.77,111.3,440.94,113.39 M415.5,71.16c0.57-1.93,1.49-3.53,2.58-4.96c1.08-1.41,2.48-2.52,4.23-3.25
			c1.76-0.81,3.82-1.19,6.41-1.19c4.4,0,7.9,1.39,10.49,4.35c2.4,2.78,3.85,6.46,4.15,11.1h-14.64h-14.67
			C414.4,75.11,414.92,73.07,415.5,71.16"/>
		<path id="XMLID_00000176762850293150339470000017248718744595336861_" class="st0" d="M527.18,107.35
			c-1.08,1.76-2.34,3.27-3.76,4.62c-1.41,1.36-2.91,2.44-4.64,3.26c-1.78,0.85-3.76,1.28-6.1,1.28c-5.56,0-9.49-2.1-11.79-6.4
			c-2.56-4.6-3.82-11.33-3.82-20.3c0-9.06,1.26-15.88,3.82-20.32c2.24-4.3,6.09-6.4,11.47-6.4c2.34,0,4.34,0.34,5.91,1.11
			c1.56,0.74,2.98,1.7,4.26,2.92c1.23,1.27,2.23,2.67,3.15,4.41c0.91,1.65,1.72,3.41,2.46,5.34l20.46-8.06
			c-1.88-5.12-4.07-9.44-6.5-12.68c-2.38-3.29-5.4-5.89-8.81-7.8c-6.55-3.8-13.52-5.72-21.09-5.72c-12.04,0-21.7,4.3-28.79,12.78
			c-7.07,8.48-10.65,20.05-10.65,34.59c0,6.38,0.75,12.44,2.35,18.06c1.55,5.63,3.88,10.67,7.16,14.95
			c3.21,4.27,7.28,7.73,12.37,10.24c5.07,2.49,10.99,3.77,17.87,3.77c8.39,0,15.42-1.75,20.78-5.21c2.76-1.78,5.42-4.21,8-7.23
			c2.58-3.02,5.26-6.97,8.01-11.9l-18.79-10.73C529.39,103.82,528.22,105.58,527.18,107.35"/>
		<path id="XMLID_00000167360314480801421220000014548803811074096013_" class="st0" d="M607.12,64.78v-20.5h-16.93v-28.9h-24.25
			v28.9h-11.98v20.5h11.98v50.53c0,7.39,2.07,12.86,6.12,16.39c4.09,3.54,9.65,5.28,16.62,5.28c2,0,3.85,0,5.51-0.07
			c1.66-0.08,3.06-0.19,4.33-0.25c1.23-0.09,2.51-0.27,3.84-0.46c1.31-0.14,2.87-0.49,4.77-0.89v-20.96l-5.95,1.46
			c-1.74,0.47-3.56,0.71-5.48,0.71c-1.65,0-3.01-0.23-4.02-0.71c-0.99-0.36-1.48-1.55-1.48-3.51v-47.5H607.12z"/>
	</g>
	<path class="st1" d="M35.58,154h16.93c4.66,0,8.47,3.81,8.47,8.47v16.93c0,4.66-3.81,8.47-8.47,8.47H35.58
		c-4.66,0-8.47-3.81-8.47-8.47v-16.93C27.12,157.82,30.92,154,35.58,154L35.58,154L35.58,154z"/>
	<path class="st2" d="M78.89,154h16.93c4.65,0,8.47,3.81,8.47,8.47v16.93c0,4.66-3.82,8.47-8.47,8.47H78.89
		c-4.66,0-8.47-3.81-8.47-8.47v-16.93C70.42,157.82,74.23,154,78.89,154L78.89,154L78.89,154z"/>
	<path class="st3" d="M122.2,154h16.93c4.66,0,8.47,3.81,8.47,8.47v16.93c0,4.66-3.81,8.47-8.47,8.47H122.2
		c-4.66,0-8.46-3.81-8.46-8.47v-16.93C113.74,157.82,117.54,154,122.2,154L122.2,154L122.2,154z"/>
	<path class="st4" d="M166.55,186.2v-29.04h3.56v29.04H166.55L166.55,186.2L166.55,186.2z M189.7,161.27v-4.1h3.56v4.1H189.7
		L189.7,161.27L189.7,161.27z M189.7,186.2v-21.03h3.56v21.03H189.7L189.7,186.2L189.7,186.2z M218.57,186.2l-8-21.03h3.77
		l4.52,12.6c0.49,1.35,0.93,2.77,1.35,4.23c0.31-1.11,0.75-2.43,1.33-4l4.68-12.83h3.66l-7.96,21.03H218.57L218.57,186.2
		L218.57,186.2z M261.44,179.43l3.69,0.45c-0.59,2.16-1.66,3.82-3.23,5.01c-1.57,1.19-3.58,1.78-6.02,1.78
		c-3.09,0-5.52-0.94-7.33-2.84c-1.8-1.89-2.69-4.56-2.69-7.98c0-3.54,0.91-6.29,2.72-8.24c1.83-1.96,4.18-2.93,7.1-2.93
		c2.81,0,5.11,0.95,6.89,2.87c1.77,1.91,2.68,4.61,2.68,8.08c0,0.21-0.01,0.53-0.02,0.95h-15.68c0.12,2.32,0.78,4.08,1.96,5.31
		c1.17,1.23,2.63,1.84,4.39,1.84c1.3,0,2.42-0.34,3.35-1.04C260.17,182.03,260.9,180.93,261.44,179.43L261.44,179.43L261.44,179.43z
		 M249.74,173.65h11.74c-0.15-1.76-0.6-3.09-1.34-3.97c-1.14-1.38-2.61-2.06-4.42-2.06c-1.64,0-3.02,0.55-4.13,1.64
		C250.48,170.36,249.86,171.82,249.74,173.65L249.74,173.65L249.74,173.65z M294.75,194.3l-0.4-3.34c0.79,0.2,1.47,0.31,2.05,0.31
		c0.79,0,1.42-0.13,1.89-0.39c0.48-0.26,0.87-0.63,1.18-1.11c0.23-0.36,0.58-1.24,1.08-2.64c0.07-0.21,0.17-0.49,0.31-0.88
		l-7.98-21.07h3.84l4.38,12.18c0.56,1.55,1.07,3.17,1.52,4.88c0.42-1.64,0.9-3.23,1.47-4.8l4.5-12.25h3.57l-8,21.39
		c-0.86,2.32-1.53,3.9-2,4.77c-0.63,1.18-1.36,2.04-2.17,2.58c-0.83,0.55-1.8,0.83-2.94,0.83
		C296.36,194.74,295.6,194.59,294.75,194.3L294.75,194.3L294.75,194.3z M327.9,175.69c0-3.89,1.08-6.78,3.26-8.66
		c1.8-1.54,4.01-2.33,6.61-2.33c2.89,0,5.26,0.94,7.1,2.85c1.83,1.89,2.74,4.51,2.74,7.85c0,2.71-0.4,4.83-1.22,6.38
		c-0.81,1.57-1.99,2.77-3.54,3.62c-1.56,0.86-3.25,1.29-5.09,1.29c-2.95,0-5.32-0.94-7.14-2.84
		C328.81,181.96,327.9,179.24,327.9,175.69L327.9,175.69L327.9,175.69z M331.57,175.69c0,2.7,0.59,4.71,1.76,6.05
		c1.17,1.34,2.66,2.01,4.44,2.01c1.77,0,3.24-0.68,4.42-2.02c1.16-1.34,1.76-3.4,1.76-6.16c0-2.6-0.6-4.58-1.78-5.91
		c-1.18-1.34-2.64-2.01-4.4-2.01c-1.78,0-3.26,0.67-4.44,2C332.16,170.98,331.57,172.99,331.57,175.69L331.57,175.69L331.57,175.69z
		 M379.62,186.2v-3.09c-1.63,2.38-3.87,3.57-6.68,3.57c-1.24,0-2.4-0.24-3.48-0.71c-1.08-0.48-1.88-1.08-2.4-1.8
		c-0.53-0.72-0.89-1.6-1.1-2.63c-0.15-0.71-0.22-1.82-0.22-3.33v-13.03h3.56v11.66c0,1.87,0.09,3.12,0.22,3.77
		c0.23,0.94,0.7,1.68,1.43,2.21c0.73,0.54,1.62,0.8,2.69,0.8c1.07,0,2.07-0.27,3.01-0.83c0.94-0.54,1.6-1.29,1.99-2.23
		c0.39-0.94,0.59-2.32,0.59-4.11v-11.27h3.56v21.03H379.62L379.62,186.2L379.62,186.2z M402.4,186.2v-21.03h3.2v3.18
		c0.82-1.49,1.57-2.48,2.26-2.95c0.69-0.47,1.46-0.71,2.29-0.71c1.2,0,2.42,0.38,3.67,1.14l-1.23,3.31
		c-0.86-0.52-1.74-0.77-2.61-0.77c-0.79,0-1.49,0.23-2.11,0.71c-0.61,0.47-1.06,1.11-1.32,1.95c-0.4,1.27-0.6,2.66-0.6,4.16v11.01
		H402.4L402.4,186.2L402.4,186.2z M454.9,186.2v-2.66c-1.33,2.09-3.29,3.13-5.88,3.13c-1.68,0-3.23-0.46-4.62-1.39
		c-1.41-0.92-2.51-2.21-3.27-3.87c-0.78-1.66-1.16-3.57-1.16-5.71c0-2.09,0.36-4.01,1.05-5.72c0.71-1.7,1.76-3.02,3.16-3.92
		c1.4-0.91,2.96-1.37,4.7-1.37c1.26,0,2.39,0.26,3.38,0.8c0.99,0.53,1.8,1.23,2.42,2.08v-10.42h3.54v29.04H454.9L454.9,186.2
		L454.9,186.2z M443.62,175.71c0,2.69,0.57,4.71,1.71,6.04c1.13,1.33,2.46,2,4.01,2c1.56,0,2.89-0.64,3.97-1.91
		c1.09-1.27,1.64-3.22,1.64-5.84c0-2.87-0.56-4.98-1.66-6.33c-1.12-1.35-2.48-2.02-4.11-2.02c-1.58,0-2.91,0.66-3.97,1.94
		C444.16,170.87,443.62,172.91,443.62,175.71L443.62,175.71L443.62,175.71z M477.81,186.2v-21.03h3.2v3.18
		c0.82-1.49,1.58-2.48,2.27-2.95c0.69-0.47,1.46-0.71,2.3-0.71c1.2,0,2.42,0.38,3.65,1.14l-1.23,3.31
		c-0.86-0.52-1.74-0.77-2.61-0.77c-0.79,0-1.49,0.23-2.11,0.71c-0.62,0.47-1.06,1.11-1.32,1.95c-0.4,1.27-0.6,2.66-0.6,4.16v11.01
		H477.81L477.81,186.2L477.81,186.2z M519.79,179.43l3.68,0.45c-0.58,2.16-1.66,3.82-3.22,5.01c-1.58,1.19-3.59,1.78-6.03,1.78
		c-3.07,0-5.51-0.94-7.31-2.84c-1.81-1.89-2.71-4.56-2.71-7.98c0-3.54,0.91-6.29,2.73-8.24c1.82-1.96,4.19-2.93,7.09-2.93
		c2.81,0,5.11,0.95,6.9,2.87c1.78,1.91,2.67,4.61,2.67,8.08c0,0.21,0,0.53-0.02,0.95h-15.68c0.13,2.32,0.79,4.08,1.96,5.31
		s2.64,1.84,4.4,1.84c1.3,0,2.42-0.34,3.34-1.04C518.52,182.03,519.25,180.93,519.79,179.43L519.79,179.43L519.79,179.43z
		 M508.09,173.65h11.74c-0.15-1.76-0.61-3.09-1.34-3.97c-1.14-1.38-2.61-2.06-4.42-2.06c-1.63,0-3.02,0.55-4.14,1.64
		C508.82,170.36,508.21,171.82,508.09,173.65L508.09,173.65L508.09,173.65z M555.72,183.61c-1.33,1.12-2.59,1.91-3.81,2.38
		c-1.23,0.45-2.54,0.69-3.93,0.69c-2.32,0-4.09-0.56-5.33-1.68c-1.23-1.14-1.86-2.58-1.86-4.34c0-1.04,0.24-1.97,0.71-2.82
		c0.47-0.86,1.08-1.53,1.83-2.05c0.76-0.51,1.61-0.9,2.57-1.16c0.7-0.18,1.76-0.37,3.16-0.54c2.88-0.35,5.01-0.75,6.37-1.23
		c0-0.49,0.02-0.79,0.02-0.93c0-1.45-0.34-2.48-1.01-3.07c-0.93-0.8-2.27-1.21-4.06-1.21c-1.68,0-2.91,0.28-3.72,0.88
		c-0.8,0.58-1.38,1.63-1.77,3.12l-3.48-0.48c0.32-1.49,0.84-2.7,1.55-3.61c0.72-0.93,1.78-1.64,3.15-2.13
		c1.38-0.49,2.96-0.74,4.77-0.74c1.8,0,3.25,0.21,4.38,0.62c1.12,0.43,1.94,0.96,2.48,1.6c0.52,0.64,0.89,1.45,1.11,2.43
		c0.11,0.6,0.17,1.7,0.17,3.29v4.75c0,3.31,0.07,5.42,0.23,6.28c0.14,0.88,0.45,1.72,0.9,2.53h-3.73
		C556.06,185.46,555.82,184.6,555.72,183.61L555.72,183.61L555.72,183.61z M555.43,175.64c-1.3,0.53-3.24,0.97-5.83,1.34
		c-1.46,0.22-2.51,0.46-3.11,0.72c-0.61,0.26-1.08,0.65-1.4,1.16c-0.33,0.51-0.5,1.07-0.5,1.69c0,0.95,0.36,1.73,1.08,2.38
		c0.72,0.62,1.78,0.94,3.16,0.94c1.37,0,2.59-0.3,3.67-0.9c1.07-0.6,1.86-1.43,2.36-2.46c0.38-0.81,0.57-2,0.57-3.56V175.64
		L555.43,175.64L555.43,175.64z M578.6,186.2v-21.03h3.18v2.95c0.66-1.03,1.54-1.86,2.63-2.49c1.1-0.62,2.35-0.94,3.75-0.94
		c1.55,0,2.82,0.32,3.82,0.97c1,0.64,1.71,1.54,2.11,2.71c1.67-2.45,3.84-3.68,6.49-3.68c2.09,0,3.7,0.58,4.81,1.74
		c1.13,1.15,1.69,2.93,1.69,5.33v14.44h-3.54v-13.26c0-1.42-0.11-2.45-0.35-3.08c-0.23-0.62-0.65-1.13-1.25-1.51
		c-0.61-0.38-1.33-0.57-2.15-0.57c-1.49,0-2.71,0.49-3.69,1.48c-0.97,0.97-1.46,2.55-1.46,4.72v12.22h-3.56v-13.66
		c0-1.6-0.29-2.78-0.87-3.58c-0.58-0.79-1.52-1.18-2.85-1.18c-1,0-1.93,0.26-2.78,0.79c-0.85,0.53-1.48,1.3-1.85,2.31
		c-0.39,1.03-0.58,2.5-0.58,4.41v10.91H578.6L578.6,186.2z"/>
</g>
</svg>
